<?xml version="1.0" encoding="UTF-8" standalone="no"?>
<!-- Created with Inkscape (http://www.inkscape.org/) -->

<svg
   xmlns:dc="http://purl.org/dc/elements/1.1/"
   xmlns:cc="http://creativecommons.org/ns#"
   xmlns:rdf="http://www.w3.org/1999/02/22-rdf-syntax-ns#"
   xmlns:svg="http://www.w3.org/2000/svg"
   xmlns="http://www.w3.org/2000/svg"
   xmlns:sodipodi="http://sodipodi.sourceforge.net/DTD/sodipodi-0.dtd"
   xmlns:inkscape="http://www.inkscape.org/namespaces/inkscape"
   width="297mm"
   height="100mm"
   viewBox="0 0 297 100"
   version="1.1"
   id="svg8"
   inkscape:version="0.92.2 5c3e80d, 2017-08-06"
   sodipodi:docname="gow.svg"
   inkscape:export-filename="/Users/napa/gow.png"
   inkscape:export-xdpi="178.53999"
   inkscape:export-ydpi="178.53999">
  <defs
     id="defs2" />
  <sodipodi:namedview
     id="base"
     pagecolor="#ffffff"
     bordercolor="#666666"
     borderopacity="1.0"
     inkscape:pageopacity="0.0"
     inkscape:pageshadow="2"
     inkscape:zoom="0.77147868"
     inkscape:cx="561.25984"
     inkscape:cy="188.97638"
     inkscape:document-units="mm"
     inkscape:current-layer="g5115"
     showgrid="false"
     inkscape:window-width="1440"
     inkscape:window-height="797"
     inkscape:window-x="0"
     inkscape:window-y="1"
     inkscape:window-maximized="1" />
  <metadata
     id="metadata5">
    <rdf:RDF>
      <cc:Work
         rdf:about="">
        <dc:format>image/svg+xml</dc:format>
        <dc:type
           rdf:resource="http://purl.org/dc/dcmitype/StillImage" />
        <dc:title></dc:title>
      </cc:Work>
    </rdf:RDF>
  </metadata>
  <g
     inkscape:label="Capa 1"
     inkscape:groupmode="layer"
     id="layer1"
     transform="translate(0,-197)">
    <g
       aria-label="gou"
       style="font-style:normal;font-weight:normal;font-size:139.81625366px;line-height:1.25;font-family:sans-serif;letter-spacing:0px;word-spacing:0px;fill:#000000;fill-opacity:1;stroke:none;stroke-width:3.49540639"
       id="text817">
      <g
         id="g5115">
        <path
           inkscape:connector-curvature="0"
           d="m 213.76954,201.65086 c 2.05064,0 3.91485,0.74569 5.59265,2.23706 1.49138,1.49137 2.23706,3.35559 2.23706,5.59265 v 31.87811 c 0,2.6099 0.46606,4.75375 1.39816,6.43154 1.30496,2.42349 2.88954,4.00807 4.75375,4.75376 1.6778,0.55926 3.54201,0.83889 5.59265,0.83889 4.66054,0 7.82971,-1.39816 9.50751,-4.19448 l 0.8389,-1.39817 c 0.93211,-2.05063 1.39816,-4.19448 1.39816,-6.43154 v -31.87811 c 0,-2.98275 1.30495,-5.21981 3.91485,-6.71118 2.60991,-1.49137 5.03339,-1.49137 7.27045,0 2.6099,1.49137 3.91485,3.72843 3.91485,6.71118 v 31.87811 c -1.11852,12.86309 -6.89759,21.25207 -17.33721,25.16692 -2.98274,1.11853 -6.15191,1.6778 -9.50751,1.6778 -8.94824,0 -15.93905,-3.35559 -20.97244,-10.06677 -0.9321,-1.11853 -1.771,-2.33028 -2.51669,-3.63523 -2.23706,-4.28769 -3.35559,-8.6686 -3.35559,-13.14272 v -31.87811 c 0,-3.35559 1.39817,-5.68586 4.19449,-6.99081 0.93211,-0.55927 1.95743,-0.8389 3.07596,-0.8389 z"
           style="font-style:normal;font-variant:normal;font-weight:normal;font-stretch:normal;font-family:Ubuntu-Title;-inkscape-font-specification:Ubuntu-Title;opacity:0.7;fill:#ffffff;stroke-width:3.49540639"
           id="path870"
           sodipodi:nodetypes="scssccsccssccsccsccsscs" />
        <path
           inkscape:connector-curvature="0"
           id="path823"
           style="font-style:normal;font-variant:normal;font-weight:normal;font-stretch:normal;font-family:Ubuntu-Title;-inkscape-font-specification:Ubuntu-Title;fill:#ffffff;stroke-width:3.49540639"
           d="m 86.734575,259.81442 v -28.52251 q 0,-17.05759 -9.787141,-25.72619 -6.431548,-5.03339 -15.100155,-5.03339 -8.668608,0 -15.379788,4.47412 -10.346403,6.71118 -12.583463,21.81134 -0.559265,3.35559 -0.559265,6.99081 0,17.89648 10.905668,27.12435 l 2.23706,1.6778 q 6.71118,4.47412 13.701993,4.47412 6.431547,-0.55927 11.744565,-2.79633 -0.559265,10.06677 -3.35559,12.30383 -1.957428,1.39817 -10.626036,1.39817 -2.23706,-0.27964 -4.194487,-0.8389 l -3.35559,-1.6778 0.279632,0.8389 q -2.23706,-3.63522 -6.431547,-3.63522 -4.47412,0 -6.431548,3.91485 -1.957428,3.91486 0.279632,7.27045 3.075958,5.31302 9.507506,7.27044 1.957427,0.27964 2.23706,0.27964 l 6.431547,1.39816 h 1.11853 q 10.346403,0 14.540891,-1.39816 3.075957,-1.39817 5.872283,-3.35559 8.948243,-8.10935 8.948243,-28.24289 z M 61.567646,215.35285 q 2.796325,0 4.753753,1.39817 5.872282,2.79632 5.872282,14.54089 v 8.94824 q 0,7.27044 -4.194487,9.78713 l -1.398163,0.27964 q -3.075957,1.67779 -6.431547,1.95742 -11.744566,-1.67779 -12.024198,-17.61684 v -0.8389 q 0,-12.0242 6.431547,-16.49832 3.075958,-1.67779 5.592651,-1.67779 0.559265,0 0.838897,-0.27964 z" />
        <path
           inkscape:connector-curvature="0"
           id="path825"
           style="font-style:normal;font-variant:normal;font-weight:normal;font-stretch:normal;font-family:Ubuntu-Title;-inkscape-font-specification:Ubuntu-Title;fill:#ffffff;stroke-width:3.49540639"
           d="m 127.37305,200.81196 q -8.38898,0 -15.10016,4.75376 -12.583465,8.38897 -12.583465,28.24288 -0.27963,18.73538 10.346405,27.68362 7.55008,5.59265 17.33722,5.59265 8.66861,0 15.65942,-4.47412 12.58346,-8.38898 12.58346,-28.80215 0,-19.01501 -12.58346,-28.52252 -6.71118,-4.47412 -15.65942,-4.47412 z m -13.14273,34.11517 v -1.11853 q 0,-12.0242 6.15192,-15.93905 3.35559,-2.23706 6.99081,-2.23706 13.70199,0 13.70199,18.17611 0,18.73538 -13.70199,18.73538 -13.14273,0 -13.14273,-17.61685 z" />
        <path
           inkscape:connector-curvature="0"
           id="path827"
           style="font-style:normal;font-variant:normal;font-weight:normal;font-stretch:normal;font-family:Ubuntu-Title;-inkscape-font-specification:Ubuntu-Title;fill:#ffffff;stroke-width:3.49540639"
           d="m 174.96956,200.53233 q 3.07595,0 5.59265,2.23706 2.23706,2.23706 2.23706,5.59265 v 31.87811 q 0,3.91485 1.39816,6.43154 1.95743,3.63523 4.75375,4.75376 2.51669,0.83889 5.59265,0.83889 6.99081,0 9.50751,-4.19448 l 0.8389,-1.39817 q 1.39816,-3.07595 1.39816,-6.43154 v -31.87811 q 0,-4.47412 3.91485,-6.71118 3.91486,-2.23706 7.27045,0 3.91485,2.23706 3.91485,6.71118 v 31.87811 q -1.67779,19.29464 -17.33721,25.16692 -4.47412,1.6778 -9.50751,1.6778 -13.42236,0 -20.97244,-10.06677 -1.39816,-1.6778 -2.51669,-3.63523 -3.35559,-6.43154 -3.35559,-13.14272 v -31.87811 q 0,-5.03338 4.19449,-6.99081 1.39816,-0.8389 3.07596,-0.8389 z" />
      </g>
    </g>
  </g>
</svg>
